<svg width="16" height="17" viewBox="0 0 16 17" fill="none" xmlns="http://www.w3.org/2000/svg">
<g clip-path="url(#clip0_4_251)">
<path d="M13.7708 14.9955L13.5416 13.9257C13.0692 11.7213 12.2037 9.64969 10.9687 7.76584V6.02997C11.5376 5.60194 11.9062 4.92137 11.9062 4.15625V3.21875C11.9062 2.95987 11.6964 2.75 11.4375 2.75H10.9687V0.96875C10.9687 0.709875 10.7589 0.5 10.5 0.5C10.2411 0.5 10.0312 0.709875 10.0312 0.96875V2.75497C9.18937 2.80406 8.45178 3.24694 8 3.90178C7.54821 3.24694 6.81062 2.80406 5.96875 2.75497V0.96875C5.96875 0.709875 5.75887 0.5 5.5 0.5C5.24112 0.5 5.03125 0.709875 5.03125 0.96875V2.75H4.5625C4.30362 2.75 4.09375 2.95987 4.09375 3.21875V4.15625C4.09375 4.92137 4.46237 5.60194 5.03125 6.02997V7.76584C3.79631 9.64969 2.93078 11.7212 2.4584 13.9257L2.22915 14.9955C2.18015 15.2242 2.30725 15.4541 2.52706 15.5342C4.28634 16.1751 6.12768 16.5 8 16.5C9.87231 16.5 11.7137 16.1751 13.4729 15.5342C13.6927 15.4541 13.8198 15.2243 13.7708 14.9955V14.9955ZM10.1875 3.6875H10.9687V4.15625C10.9687 4.93166 10.3379 5.5625 9.5625 5.5625H8.46875V5.40625C8.46875 4.45853 9.23978 3.6875 10.1875 3.6875ZM5.03125 3.6875H5.8125C6.76021 3.6875 7.53125 4.45853 7.53125 5.40625V5.5625H6.4375C5.66209 5.5625 5.03125 4.93166 5.03125 4.15625V3.6875ZM6.4375 6.5H9.5625C9.723 6.5 9.87975 6.48372 10.0312 6.45284V7.4375H5.96875V6.45284C6.12025 6.48372 6.277 6.5 6.4375 6.5V6.5ZM8 15.5625C6.37343 15.5625 4.77159 15.3019 3.23246 14.7876L3.37506 14.1221C3.81515 12.0684 4.61475 10.1362 5.75296 8.375L10.247 8.37503C11.3852 10.1363 12.1848 12.0684 12.6249 14.1221L12.7675 14.7876C11.2284 15.3019 9.62656 15.5625 8 15.5625Z" fill="black"/>
</g>
<defs>
<clipPath id="clip0_4_251">
<rect width="16" height="16" fill="white" transform="translate(0 0.5)"/>
</clipPath>
</defs>
</svg>
